<svg width="512" height="512" viewBox="0 0 512 512" fill="none" xmlns="http://www.w3.org/2000/svg">
<rect width="512" height="512" rx="80" fill="black"/>
<path d="M251.7 355H208.2V140.5H251.7V355ZM244.2 355H140.7C113.9 355 93 348.4 78 335.2C63 322 55.5 302.9 55.5 277.9C55.5 252.7 63 233.5 78 220.3C93 207.1 113.9 200.5 140.7 200.5H241.2V235H140.7C127.7 235 117.7 238.6 110.7 245.8C103.9 252.8 100.5 263.5 100.5 277.9C100.5 292.1 103.9 302.8 110.7 310C117.7 317 127.7 320.5 140.7 320.5H244.2V355ZM260.742 355V140.5H304.242V200.5H395.442C413.042 200.5 425.842 204.9 433.842 213.7C442.042 222.3 446.142 233.7 446.142 247.9V355H402.642V253C402.642 241 396.642 235 384.642 235H304.242V355H260.742Z" fill="white"/>
</svg>
