<svg width="313" height="172" viewBox="0 0 313 172" fill="none" xmlns="http://www.w3.org/2000/svg">
<path d="M157.36 172H122.56V0.399992H157.36V172ZM151.36 172H68.56C47.12 172 30.4 166.72 18.4 156.16C6.4 145.6 0.4 130.32 0.4 110.32C0.4 90.16 6.4 74.8 18.4 64.24C30.4 53.68 47.12 48.4 68.56 48.4H148.96V76H68.56C58.16 76 50.16 78.88 44.56 84.64C39.12 90.24 36.4 98.8 36.4 110.32C36.4 121.68 39.12 130.24 44.56 136C50.16 141.6 58.16 144.4 68.56 144.4H151.36V172ZM164.594 172V0.399992H199.394V48.4H272.354C286.434 48.4 296.674 51.92 303.074 58.96C309.634 65.84 312.914 74.96 312.914 86.32V172H278.114V90.4C278.114 80.8 273.314 76 263.714 76H199.394V172H164.594Z" fill="black"/>
</svg>
