<svg width="1135" height="251" viewBox="0 0 1135 251" fill="none" xmlns="http://www.w3.org/2000/svg">
<path d="M165.36 223H130.56V51.4H165.36V223ZM159.36 223H76.56C55.12 223 38.4 217.72 26.4 207.16C14.4 196.6 8.4 181.32 8.4 161.32C8.4 141.16 14.4 125.8 26.4 115.24C38.4 104.68 55.12 99.4 76.56 99.4H156.96V127H76.56C66.16 127 58.16 129.88 52.56 135.64C47.12 141.24 44.4 149.8 44.4 161.32C44.4 172.68 47.12 181.24 52.56 187C58.16 192.6 66.16 195.4 76.56 195.4H159.36V223ZM172.594 223V51.4H207.394V99.4H280.354C294.434 99.4 304.674 102.92 311.074 109.96C317.634 116.84 320.914 125.96 320.914 137.32V223H286.114V141.4C286.114 131.8 281.314 127 271.714 127H207.394V223H172.594Z" fill="white"/>
<path d="M408.451 207.6C401.945 207.6 395.865 206.053 390.211 202.96C384.665 199.867 380.185 195.44 376.771 189.68C373.358 183.92 371.651 177.04 371.651 169.04C371.651 161.253 373.091 154.533 375.971 148.88C378.958 143.12 383.118 138.64 388.451 135.44C393.891 132.24 400.345 130.64 407.811 130.64C412.078 130.64 416.078 131.387 419.811 132.88C423.545 134.267 426.745 136.133 429.411 138.48C432.078 140.827 433.998 143.387 435.171 146.16L434.371 133.68V88.4H451.331V206H434.851L434.531 193.04C433.465 195.387 431.651 197.68 429.091 199.92C426.638 202.16 423.651 204.027 420.131 205.52C416.611 206.907 412.718 207.6 408.451 207.6ZM411.331 193.04C415.278 193.04 418.851 192.133 422.051 190.32C425.358 188.4 427.971 185.733 429.891 182.32C431.918 178.907 432.931 174.853 432.931 170.16V169.04C432.931 164.24 431.918 160.08 429.891 156.56C427.971 152.933 425.358 150.16 422.051 148.24C418.851 146.213 415.278 145.2 411.331 145.2C404.185 145.2 398.798 147.493 395.171 152.08C391.651 156.667 389.891 162.32 389.891 169.04C389.891 175.867 391.651 181.573 395.171 186.16C398.798 190.747 404.185 193.04 411.331 193.04ZM488.53 207.6C481.17 207.6 475.57 206.053 471.73 202.96C467.89 199.867 465.277 195.76 463.89 190.64C462.61 185.52 461.97 179.867 461.97 173.68V132.56H479.25V169.36C479.25 175.013 479.57 179.6 480.21 183.12C480.957 186.64 482.343 189.253 484.37 190.96C486.503 192.56 489.65 193.36 493.81 193.36C496.797 193.36 499.623 192.56 502.29 190.96C505.063 189.253 507.357 186.96 509.17 184.08C510.983 181.093 511.89 177.787 511.89 174.16V132.56H529.01V206H514.93L513.01 195.28C510.343 199.333 507.037 202.427 503.09 204.56C499.143 206.587 494.29 207.6 488.53 207.6ZM575.074 207.6C567.927 207.6 561.421 206.053 555.554 202.96C549.794 199.867 545.154 195.387 541.634 189.52C538.221 183.653 536.514 176.613 536.514 168.4C536.514 160.72 538.061 154.053 541.154 148.4C544.354 142.747 548.781 138.373 554.434 135.28C560.194 132.187 566.807 130.64 574.274 130.64C580.461 130.64 585.527 131.44 589.474 133.04C593.527 134.64 596.567 136.347 598.594 138.16L590.914 152.08C590.487 151.547 589.634 150.747 588.354 149.68C587.074 148.613 585.367 147.653 583.234 146.8C581.207 145.84 578.701 145.36 575.714 145.36C568.674 145.36 563.394 147.493 559.874 151.76C556.461 156.027 554.754 161.52 554.754 168.24C554.754 176.027 556.567 182.16 560.194 186.64C563.927 191.013 569.101 193.2 575.714 193.2C579.234 193.2 582.541 192.72 585.634 191.76C588.727 190.693 591.074 189.573 592.674 188.4L598.914 200.56C596.994 202.053 593.954 203.6 589.794 205.2C585.634 206.8 580.727 207.6 575.074 207.6ZM605.94 206V88.4H622.42V152.88L622.1 165.36L650.1 132.56H671.38L643.7 163.28L671.54 206H651.22L636.34 182L632.18 173.84L622.58 184.24V206H605.94ZM702.736 206L664.016 132.56H683.696L699.536 165.68L704.656 178.96L709.776 165.68L725.456 132.56H744.656L706.096 206H702.736ZM745.334 206V88.4H762.134V132.56L761.494 146.16C763.414 141.787 766.561 138.107 770.934 135.12C775.414 132.133 780.747 130.64 786.934 130.64C794.827 130.64 800.747 132.293 804.694 135.6C808.641 138.8 811.254 143.387 812.534 149.36C813.921 155.333 814.614 162.427 814.614 170.64V206H797.494V170.48C797.494 161.947 796.641 155.6 794.934 151.44C793.227 147.28 789.334 145.2 783.254 145.2C780.267 145.2 777.121 146.16 773.814 148.08C770.614 149.893 767.894 152.613 765.654 156.24C763.414 159.76 762.294 164.187 762.294 169.52V206H745.334ZM850.686 207.6C843.326 207.6 837.726 206.053 833.886 202.96C830.046 199.867 827.433 195.76 826.046 190.64C824.766 185.52 824.126 179.867 824.126 173.68V132.56H841.406V169.36C841.406 175.013 841.726 179.6 842.366 183.12C843.113 186.64 844.5 189.253 846.526 190.96C848.66 192.56 851.806 193.36 855.966 193.36C858.953 193.36 861.78 192.56 864.446 190.96C867.22 189.253 869.513 186.96 871.326 184.08C873.14 181.093 874.046 177.787 874.046 174.16V132.56H891.166V206H877.086L875.166 195.28C872.5 199.333 869.193 202.427 865.246 204.56C861.3 206.587 856.446 207.6 850.686 207.6ZM908.426 246.32L924.266 208.24L893.866 132.56H913.386L929.066 179.28L932.586 190.64L936.106 179.28L952.586 132.56H971.466L926.346 246.32H908.426ZM973.39 206V132.56H990.35L990.51 146C992.43 141.627 995.523 138 999.79 135.12C1004.16 132.133 1009.39 130.64 1015.47 130.64C1023.36 130.64 1029.28 132.293 1033.23 135.6C1037.18 138.8 1039.79 143.387 1041.07 149.36C1042.46 155.333 1043.15 162.427 1043.15 170.64V206H1025.87V171.12C1025.87 162.587 1025.02 156.08 1023.31 151.6C1021.71 147.12 1017.92 144.88 1011.95 144.88C1008.86 144.88 1005.66 145.84 1002.35 147.76C999.043 149.68 996.27 152.453 994.03 156.08C991.79 159.707 990.67 164.187 990.67 169.52V206H973.39ZM1053.81 206V88.4H1070.61V132.56L1069.97 146.16C1071.89 141.787 1075.04 138.107 1079.41 135.12C1083.89 132.133 1089.22 130.64 1095.41 130.64C1103.3 130.64 1109.22 132.293 1113.17 135.6C1117.12 138.8 1119.73 143.387 1121.01 149.36C1122.4 155.333 1123.09 162.427 1123.09 170.64V206H1105.97V170.48C1105.97 161.947 1105.12 155.6 1103.41 151.44C1101.7 147.28 1097.81 145.2 1091.73 145.2C1088.74 145.2 1085.6 146.16 1082.29 148.08C1079.09 149.893 1076.37 152.613 1074.13 156.24C1071.89 159.76 1070.77 164.187 1070.77 169.52V206H1053.81Z" fill="white"/>
</svg>
